<svg width="520" height="120" viewBox="0 0 520 120" fill="none" xmlns="http://www.w3.org/2000/svg">
  <defs>
    <linearGradient id="g1" x1="18" y1="16" x2="104" y2="104" gradientUnits="userSpaceOnUse">
      <stop stop-color="#7B42FF"/>
      <stop offset="0.55" stop-color="#4785FF"/>
      <stop offset="1" stop-color="#00D4FF"/>
    </linearGradient>
    <linearGradient id="g2" x1="34" y1="34" x2="86" y2="86" gradientUnits="userSpaceOnUse">
      <stop stop-color="white" stop-opacity="0.95"/>
      <stop offset="1" stop-color="white" stop-opacity="0.75"/>
    </linearGradient>
    <filter id="soft" x="0" y="0" width="140" height="140" filterUnits="userSpaceOnUse" color-interpolation-filters="sRGB">
      <feGaussianBlur in="SourceGraphic" stdDeviation="0.6" result="blur"/>
      <feColorMatrix in="blur" type="matrix"
        values="1 0 0 0 0
                0 1 0 0 0
                0 0 1 0 0
                0 0 0 0.90 0" result="soft"/>
      <feBlend in="SourceGraphic" in2="soft" mode="normal"/>
    </filter>
  </defs>

  <!-- Mark -->
  <g filter="url(#soft)">
    <rect x="14" y="14" width="92" height="92" rx="22" fill="url(#g1)"/>
    <!-- Shield outline -->
    <path d="M60 30c12 9 23 8 32 9v25c0 22-15 33-32 40C43 97 28 86 28 64V39c9-1 20 0 32-9Z"
          fill="rgba(0,0,0,0.18)"/>
    <path d="M60 34c10 7 20 7 28 8v22c0 19-13 28-28 34-15-6-28-15-28-34V42c8-1 18-1 28-8Z"
          fill="url(#g2)"/>
    <!-- Bolt -->
    <path d="M62 46h-9l8 14h-7l4 16 15-22h-8l7-8h-10Z" fill="rgba(10,10,14,0.82)"/>
  </g>

  <!-- Wordmark -->
  <g fill="#E6EDF3">
    <text x="132" y="74" font-family="Inter, system-ui, -apple-system, Segoe UI, Roboto, sans-serif"
          font-size="44" font-weight="800" letter-spacing="-0.02em">Bugsentry</text>
  </g>
  <g fill="#8B949E">
    <text x="134" y="98" font-family="Inter, system-ui, -apple-system, Segoe UI, Roboto, sans-serif"
          font-size="14" font-weight="500" letter-spacing="0.01em">AI-powered Software Risk Intelligence</text>
  </g>
</svg>
